<mxfile host="app.diagrams.net" modified="2024-02-26T23:03:44.529Z" agent="Mozilla/5.0 (Windows NT 10.0; Win64; x64) AppleWebKit/537.36 (KHTML, like Gecko) Chrome/115.0.0.0 Safari/537.36" etag="NkmC4_8IejaOO8WF9lkJ" version="23.1.5" type="google">
  <diagram name="Page-1" id="iVzh4rBYC64uuKVNCkXy">
    <mxGraphModel grid="1" page="1" gridSize="10" guides="1" tooltips="1" connect="1" arrows="1" fold="1" pageScale="1" pageWidth="850" pageHeight="1100" math="0" shadow="0">
      <root>
        <mxCell id="0" />
        <mxCell id="1" parent="0" />
        <mxCell id="YjCdv4E1TOA0mERK1w1B-39" style="edgeStyle=orthogonalEdgeStyle;rounded=0;orthogonalLoop=1;jettySize=auto;html=1;entryX=0;entryY=0.5;entryDx=0;entryDy=0;" edge="1" parent="1" source="YjCdv4E1TOA0mERK1w1B-2" target="YjCdv4E1TOA0mERK1w1B-38">
          <mxGeometry relative="1" as="geometry" />
        </mxCell>
        <mxCell id="YjCdv4E1TOA0mERK1w1B-49" style="edgeStyle=orthogonalEdgeStyle;rounded=0;orthogonalLoop=1;jettySize=auto;html=1;entryX=0;entryY=0.5;entryDx=0;entryDy=0;" edge="1" parent="1" source="YjCdv4E1TOA0mERK1w1B-2" target="YjCdv4E1TOA0mERK1w1B-43">
          <mxGeometry relative="1" as="geometry">
            <Array as="points">
              <mxPoint x="190" y="910" />
            </Array>
          </mxGeometry>
        </mxCell>
        <mxCell id="YjCdv4E1TOA0mERK1w1B-50" style="edgeStyle=orthogonalEdgeStyle;rounded=0;orthogonalLoop=1;jettySize=auto;html=1;" edge="1" parent="1" source="YjCdv4E1TOA0mERK1w1B-2" target="YjCdv4E1TOA0mERK1w1B-44">
          <mxGeometry relative="1" as="geometry" />
        </mxCell>
        <mxCell id="YjCdv4E1TOA0mERK1w1B-51" style="edgeStyle=orthogonalEdgeStyle;rounded=0;orthogonalLoop=1;jettySize=auto;html=1;exitX=0.5;exitY=0.5;exitDx=0;exitDy=0;exitPerimeter=0;entryX=0;entryY=0.5;entryDx=0;entryDy=0;" edge="1" parent="1" source="YjCdv4E1TOA0mERK1w1B-2" target="YjCdv4E1TOA0mERK1w1B-45">
          <mxGeometry relative="1" as="geometry" />
        </mxCell>
        <mxCell id="YjCdv4E1TOA0mERK1w1B-2" value="Cliente" style="shape=umlActor;verticalLabelPosition=bottom;verticalAlign=top;html=1;outlineConnect=0;" vertex="1" parent="1">
          <mxGeometry x="220" y="620" width="30" height="60" as="geometry" />
        </mxCell>
        <mxCell id="YjCdv4E1TOA0mERK1w1B-29" style="edgeStyle=orthogonalEdgeStyle;rounded=0;orthogonalLoop=1;jettySize=auto;html=1;exitX=1;exitY=1;exitDx=0;exitDy=0;exitPerimeter=0;entryX=1;entryY=0.5;entryDx=0;entryDy=0;" edge="1" parent="1" source="YjCdv4E1TOA0mERK1w1B-3" target="YjCdv4E1TOA0mERK1w1B-19">
          <mxGeometry relative="1" as="geometry" />
        </mxCell>
        <mxCell id="YjCdv4E1TOA0mERK1w1B-30" style="edgeStyle=orthogonalEdgeStyle;rounded=0;orthogonalLoop=1;jettySize=auto;html=1;exitX=0;exitY=0.3333333333333333;exitDx=0;exitDy=0;exitPerimeter=0;entryX=1;entryY=0.5;entryDx=0;entryDy=0;" edge="1" parent="1" source="YjCdv4E1TOA0mERK1w1B-3" target="YjCdv4E1TOA0mERK1w1B-18">
          <mxGeometry relative="1" as="geometry" />
        </mxCell>
        <mxCell id="YjCdv4E1TOA0mERK1w1B-32" style="edgeStyle=orthogonalEdgeStyle;rounded=0;orthogonalLoop=1;jettySize=auto;html=1;entryX=1;entryY=0.5;entryDx=0;entryDy=0;" edge="1" parent="1" source="YjCdv4E1TOA0mERK1w1B-3" target="YjCdv4E1TOA0mERK1w1B-31">
          <mxGeometry relative="1" as="geometry" />
        </mxCell>
        <mxCell id="YjCdv4E1TOA0mERK1w1B-3" value="Emepleado" style="shape=umlActor;verticalLabelPosition=bottom;verticalAlign=top;html=1;outlineConnect=0;" vertex="1" parent="1">
          <mxGeometry x="610" y="30" width="30" height="60" as="geometry" />
        </mxCell>
        <mxCell id="YjCdv4E1TOA0mERK1w1B-21" style="edgeStyle=orthogonalEdgeStyle;rounded=0;orthogonalLoop=1;jettySize=auto;html=1;exitX=0.5;exitY=0.5;exitDx=0;exitDy=0;exitPerimeter=0;entryX=0;entryY=0.5;entryDx=0;entryDy=0;" edge="1" parent="1" source="YjCdv4E1TOA0mERK1w1B-4" target="YjCdv4E1TOA0mERK1w1B-17">
          <mxGeometry relative="1" as="geometry" />
        </mxCell>
        <mxCell id="YjCdv4E1TOA0mERK1w1B-24" style="edgeStyle=orthogonalEdgeStyle;rounded=0;orthogonalLoop=1;jettySize=auto;html=1;exitX=0;exitY=0.3333333333333333;exitDx=0;exitDy=0;exitPerimeter=0;entryX=0;entryY=0.5;entryDx=0;entryDy=0;" edge="1" parent="1" source="YjCdv4E1TOA0mERK1w1B-4" target="YjCdv4E1TOA0mERK1w1B-19">
          <mxGeometry relative="1" as="geometry" />
        </mxCell>
        <mxCell id="YjCdv4E1TOA0mERK1w1B-25" style="edgeStyle=orthogonalEdgeStyle;rounded=0;orthogonalLoop=1;jettySize=auto;html=1;exitX=0;exitY=1;exitDx=0;exitDy=0;exitPerimeter=0;entryX=0;entryY=0.5;entryDx=0;entryDy=0;" edge="1" parent="1" source="YjCdv4E1TOA0mERK1w1B-4" target="YjCdv4E1TOA0mERK1w1B-18">
          <mxGeometry relative="1" as="geometry" />
        </mxCell>
        <mxCell id="YjCdv4E1TOA0mERK1w1B-4" value="Administrador&lt;div&gt;&lt;br/&gt;&lt;/div&gt;" style="shape=umlActor;verticalLabelPosition=bottom;verticalAlign=top;html=1;outlineConnect=0;" vertex="1" parent="1">
          <mxGeometry x="240" y="50" width="30" height="60" as="geometry" />
        </mxCell>
        <mxCell id="YjCdv4E1TOA0mERK1w1B-17" value="Gestionar roles de usuario&amp;nbsp;" style="ellipse;whiteSpace=wrap;html=1;aspect=fixed;" vertex="1" parent="1">
          <mxGeometry x="370" y="20" width="100" height="100" as="geometry" />
        </mxCell>
        <mxCell id="YjCdv4E1TOA0mERK1w1B-18" value="Generar informes" style="ellipse;whiteSpace=wrap;html=1;aspect=fixed;" vertex="1" parent="1">
          <mxGeometry x="375" y="380" width="100" height="100" as="geometry" />
        </mxCell>
        <mxCell id="YjCdv4E1TOA0mERK1w1B-19" value="CRUD Pedidos" style="ellipse;whiteSpace=wrap;html=1;aspect=fixed;" vertex="1" parent="1">
          <mxGeometry x="370" y="250" width="100" height="100" as="geometry" />
        </mxCell>
        <mxCell id="YjCdv4E1TOA0mERK1w1B-20" value="CRUD productos" style="ellipse;whiteSpace=wrap;html=1;aspect=fixed;" vertex="1" parent="1">
          <mxGeometry x="375" y="130" width="100" height="100" as="geometry" />
        </mxCell>
        <mxCell id="YjCdv4E1TOA0mERK1w1B-22" value="" style="endArrow=classic;html=1;rounded=0;exitX=1;exitY=1;exitDx=0;exitDy=0;exitPerimeter=0;entryX=0;entryY=0.5;entryDx=0;entryDy=0;" edge="1" parent="1" source="YjCdv4E1TOA0mERK1w1B-4" target="YjCdv4E1TOA0mERK1w1B-20">
          <mxGeometry width="50" height="50" relative="1" as="geometry">
            <mxPoint x="400" y="210" as="sourcePoint" />
            <mxPoint x="450" y="160" as="targetPoint" />
          </mxGeometry>
        </mxCell>
        <mxCell id="YjCdv4E1TOA0mERK1w1B-28" style="edgeStyle=orthogonalEdgeStyle;rounded=0;orthogonalLoop=1;jettySize=auto;html=1;exitX=0;exitY=1;exitDx=0;exitDy=0;exitPerimeter=0;entryX=0.992;entryY=0.447;entryDx=0;entryDy=0;entryPerimeter=0;" edge="1" parent="1" source="YjCdv4E1TOA0mERK1w1B-3" target="YjCdv4E1TOA0mERK1w1B-20">
          <mxGeometry relative="1" as="geometry" />
        </mxCell>
        <mxCell id="YjCdv4E1TOA0mERK1w1B-31" value="Gestionar clientes" style="ellipse;whiteSpace=wrap;html=1;aspect=fixed;" vertex="1" parent="1">
          <mxGeometry x="375" y="510" width="100" height="100" as="geometry" />
        </mxCell>
        <mxCell id="YjCdv4E1TOA0mERK1w1B-33" value="Administrar inventario" style="ellipse;whiteSpace=wrap;html=1;aspect=fixed;" vertex="1" parent="1">
          <mxGeometry x="590" y="350" width="100" height="100" as="geometry" />
        </mxCell>
        <mxCell id="YjCdv4E1TOA0mERK1w1B-35" value="" style="endArrow=none;dashed=1;html=1;rounded=0;entryX=1;entryY=1;entryDx=0;entryDy=0;exitX=0;exitY=0.5;exitDx=0;exitDy=0;" edge="1" parent="1" source="YjCdv4E1TOA0mERK1w1B-33" target="YjCdv4E1TOA0mERK1w1B-20">
          <mxGeometry width="50" height="50" relative="1" as="geometry">
            <mxPoint x="420" y="430" as="sourcePoint" />
            <mxPoint x="470" y="380" as="targetPoint" />
          </mxGeometry>
        </mxCell>
        <mxCell id="YjCdv4E1TOA0mERK1w1B-38" value="Compra de producto" style="ellipse;whiteSpace=wrap;html=1;aspect=fixed;" vertex="1" parent="1">
          <mxGeometry x="360" y="745" width="95" height="95" as="geometry" />
        </mxCell>
        <mxCell id="YjCdv4E1TOA0mERK1w1B-40" value="Seleccion del producto" style="ellipse;whiteSpace=wrap;html=1;" vertex="1" parent="1">
          <mxGeometry x="550" y="630" width="120" height="80" as="geometry" />
        </mxCell>
        <mxCell id="YjCdv4E1TOA0mERK1w1B-41" value="pago" style="ellipse;whiteSpace=wrap;html=1;" vertex="1" parent="1">
          <mxGeometry x="550" y="740" width="120" height="80" as="geometry" />
        </mxCell>
        <mxCell id="YjCdv4E1TOA0mERK1w1B-42" value="tipo de pago&amp;nbsp;" style="ellipse;whiteSpace=wrap;html=1;" vertex="1" parent="1">
          <mxGeometry x="610" y="850" width="120" height="80" as="geometry" />
        </mxCell>
        <mxCell id="YjCdv4E1TOA0mERK1w1B-43" value="Informacion de producto&amp;nbsp;" style="ellipse;whiteSpace=wrap;html=1;aspect=fixed;" vertex="1" parent="1">
          <mxGeometry x="367.5" y="870" width="80" height="80" as="geometry" />
        </mxCell>
        <mxCell id="YjCdv4E1TOA0mERK1w1B-44" value="Realizar pedido" style="ellipse;whiteSpace=wrap;html=1;aspect=fixed;" vertex="1" parent="1">
          <mxGeometry x="375" y="640" width="80" height="80" as="geometry" />
        </mxCell>
        <mxCell id="YjCdv4E1TOA0mERK1w1B-45" value="Estado del pedido" style="ellipse;whiteSpace=wrap;html=1;aspect=fixed;" vertex="1" parent="1">
          <mxGeometry x="360" y="970" width="80" height="80" as="geometry" />
        </mxCell>
        <mxCell id="YjCdv4E1TOA0mERK1w1B-46" value="" style="endArrow=none;dashed=1;html=1;dashPattern=1 3;strokeWidth=2;rounded=0;entryX=1.033;entryY=0.726;entryDx=0;entryDy=0;entryPerimeter=0;exitX=0;exitY=0.5;exitDx=0;exitDy=0;" edge="1" parent="1" source="YjCdv4E1TOA0mERK1w1B-41" target="YjCdv4E1TOA0mERK1w1B-38">
          <mxGeometry width="50" height="50" relative="1" as="geometry">
            <mxPoint x="420" y="820" as="sourcePoint" />
            <mxPoint x="470" y="770" as="targetPoint" />
          </mxGeometry>
        </mxCell>
        <mxCell id="YjCdv4E1TOA0mERK1w1B-47" value="" style="endArrow=none;dashed=1;html=1;rounded=0;entryX=0;entryY=1;entryDx=0;entryDy=0;exitX=1;exitY=0;exitDx=0;exitDy=0;" edge="1" parent="1" source="YjCdv4E1TOA0mERK1w1B-38" target="YjCdv4E1TOA0mERK1w1B-40">
          <mxGeometry width="50" height="50" relative="1" as="geometry">
            <mxPoint x="420" y="820" as="sourcePoint" />
            <mxPoint x="470" y="770" as="targetPoint" />
          </mxGeometry>
        </mxCell>
        <mxCell id="YjCdv4E1TOA0mERK1w1B-48" value="" style="endArrow=none;dashed=1;html=1;dashPattern=1 3;strokeWidth=2;rounded=0;entryX=0;entryY=0.5;entryDx=0;entryDy=0;exitX=0.5;exitY=1;exitDx=0;exitDy=0;" edge="1" parent="1" source="YjCdv4E1TOA0mERK1w1B-41" target="YjCdv4E1TOA0mERK1w1B-42">
          <mxGeometry width="50" height="50" relative="1" as="geometry">
            <mxPoint x="420" y="820" as="sourcePoint" />
            <mxPoint x="470" y="770" as="targetPoint" />
          </mxGeometry>
        </mxCell>
      </root>
    </mxGraphModel>
  </diagram>
</mxfile>
